<?xml version="1.0" standalone="no"?>
<!DOCTYPE svg PUBLIC "-//W3C//DTD SVG 20010904//EN"
 "http://www.w3.org/TR/2001/REC-SVG-20010904/DTD/svg10.dtd">
<svg version="1.0" xmlns="http://www.w3.org/2000/svg"
 width="500.000000pt" height="500.000000pt" viewBox="0 0 500.000000 500.000000"
 preserveAspectRatio="xMidYMid meet">

<g transform="translate(0.000000,500.000000) scale(0.100000,-0.100000)"
fill="#000000" stroke="none">
<path d="M2260 4988 c-489 -51 -940 -234 -1330 -542 -41 -33 -133 -118 -205
-190 -393 -396 -626 -875 -707 -1451 -16 -116 -16 -494 0 -610 68 -485 240
-890 540 -1270 73 -92 277 -296 372 -371 453 -358 1008 -554 1570 -554 562 0
1117 196 1570 554 95 75 299 279 372 371 300 380 472 785 540 1270 7 50 13
186 13 305 0 119 -6 255 -13 305 -70 503 -253 920 -570 1303 -311 376 -761
665 -1248 802 -274 77 -627 107 -904 78z m-50 -1718 l0 -250 -370 0 -370 0 0
-175 0 -175 343 -2 342 -3 3 -247 2 -248 -342 -2 -343 -3 -3 -212 -2 -213 370
0 370 0 0 -255 0 -255 -675 0 -675 0 0 1145 0 1145 675 0 675 0 0 -250z m1405
235 c223 -32 346 -86 465 -203 133 -132 190 -287 190 -514 -1 -178 -36 -324
-106 -445 -43 -72 -139 -168 -218 -218 -146 -90 -282 -124 -543 -132 l-173 -6
0 -379 0 -378 -307 2 -308 3 -3 1143 -2 1142 452 0 c342 0 478 -4 553 -15z"/>
<path d="M3230 2760 l0 -260 103 0 c96 0 109 2 164 30 102 51 145 127 147 255
2 173 -79 235 -306 235 l-108 0 0 -260z"/>
</g>
</svg>
